<svg width="363" height="33" viewBox="0 0 363 33" fill="none" xmlns="http://www.w3.org/2000/svg">
<g clip-path="url(#clip0_405_11)">
<path d="M22.0783 13.595H17.2559V18.4174H22.0783V13.595Z" fill="white"/>
<path d="M7.56982 28.0629H31.6922V3.94568H7.56982V28.068V28.0629ZM26.8697 23.2456H12.3922V8.76809H26.8646V23.2405L26.8749 23.2507L26.8697 23.2456Z" fill="white"/>
<path d="M44.7214 7.3584H40.1558V24.6143H44.7214V7.3584Z" fill="white"/>
<path d="M52.7336 11.5513H47.3052V7.36572H62.7174V11.5564H57.289V24.6268H52.7233V11.5564L52.7336 11.5513Z" fill="white"/>
<mask id="mask0_405_11" style="mask-type:luminance" maskUnits="userSpaceOnUse" x="0" y="0" width="363" height="34">
<path d="M363 0.000244141H0V33.0002H363V0.000244141Z" fill="white"/>
</mask>
<g mask="url(#mask0_405_11)">
<path d="M64.7617 7.34558H68.9467V11.3898H72.9984C74.489 11.4001 75.6621 11.8512 76.5124 12.7431C77.3627 13.6401 77.7878 14.9523 77.7878 16.6951V24.5683H73.6029V17.3102C73.6029 16.5721 73.4031 15.998 73.0189 15.5879C72.6194 15.183 72.0815 14.9728 71.3951 14.9728L68.9364 15.0036V24.5683H64.7515V7.34558H64.7617Z" fill="white"/>
<path d="M85.6659 24.9376C84.1753 24.9376 83.0022 24.4916 82.1519 23.5946C81.3016 22.6976 80.8765 21.3803 80.8765 19.6426V11.7693H85.0614V19.0275C85.0614 19.7656 85.2612 20.3397 85.6454 20.7498C86.0398 21.1547 86.5828 21.3649 87.2691 21.3649C87.9555 21.3649 88.5344 21.1086 89.0159 20.6011C89.4871 20.0885 89.7228 19.4017 89.7228 18.5303V11.7642H93.9077V24.5634H89.7228V22.8411H89.4769C89.2515 23.246 88.9493 23.6049 88.5907 23.9022C88.2782 24.1687 87.8838 24.4045 87.4126 24.6095C86.9413 24.8248 86.3523 24.9324 85.6659 24.9324V24.9427V24.9376Z" fill="white"/>
<path d="M105.331 24.9371C104.68 24.9371 104.112 24.8346 103.651 24.6142C103.19 24.3989 102.78 24.158 102.462 23.9068C102.083 23.6147 101.771 23.2559 101.53 22.8458H101.284V24.5681H97.0991V7.35046H101.284V11.4357L105.336 11.4152C106.109 11.4152 106.826 11.5741 107.508 11.8766C108.189 12.1892 108.783 12.6352 109.301 13.2195C109.818 13.8039 110.228 14.5164 110.53 15.3467C110.832 16.1771 110.981 17.1254 110.981 18.1711C110.981 19.2167 110.832 20.165 110.53 20.9954C110.228 21.8258 109.823 22.5434 109.301 23.1226C108.783 23.7069 108.184 24.1529 107.508 24.4656C106.826 24.7782 106.099 24.9269 105.336 24.9269V24.9371H105.331ZM103.978 21.3644C104.783 21.3644 105.433 21.0928 105.935 20.5494C106.437 20.0112 106.683 19.2167 106.683 18.1659C106.683 17.1151 106.437 16.3206 105.935 15.7824C105.433 15.2442 104.783 14.9674 103.978 14.9674H101.279V18.1608C101.279 19.2116 101.525 20.0061 102.027 20.5443C102.529 21.0825 103.179 21.3593 103.984 21.3593" fill="white"/>
<path d="M141.689 26.096C140.752 26.096 139.912 26.0038 139.174 25.8141C138.436 25.6245 137.776 25.3835 137.202 25.0862C136.623 24.7889 136.126 24.4455 135.701 24.056C135.276 23.6664 134.923 23.2666 134.636 22.8514C133.934 21.898 133.447 20.8113 133.176 19.6067H137.366C137.53 20.1501 137.791 20.6268 138.15 21.042C138.457 21.4008 138.892 21.7288 139.461 22.0159C140.029 22.3029 140.772 22.4464 141.689 22.4464C142.97 22.4464 143.876 22.2414 144.404 21.8262C144.937 21.411 145.203 20.8984 145.203 20.2833C145.203 19.7093 144.926 19.2582 144.378 18.9301C143.83 18.6072 143.134 18.3202 142.299 18.0792C141.459 17.8332 140.557 17.5923 139.594 17.3514C138.631 17.1053 137.73 16.7722 136.889 16.3518C136.049 15.9264 135.358 15.3677 134.81 14.6757C134.262 13.9837 133.985 13.0559 133.985 11.9026C133.985 11.1286 134.154 10.3854 134.487 9.68316C134.82 8.98092 135.296 8.3607 135.921 7.82762C136.541 7.29453 137.304 6.87421 138.206 6.55641C139.107 6.23861 140.137 6.08484 141.29 6.08484C142.171 6.08484 142.954 6.17198 143.641 6.34113C144.327 6.51028 144.932 6.73069 145.464 7.00236C145.997 7.27403 146.453 7.5867 146.842 7.93526C147.232 8.28894 147.559 8.64262 147.831 9.00655C148.461 9.87282 148.896 10.8365 149.127 11.9026H144.937C144.829 11.508 144.619 11.144 144.317 10.8211C144.066 10.5494 143.697 10.3034 143.221 10.0778C142.744 9.85231 142.099 9.73955 141.29 9.73955C140.209 9.73955 139.42 9.94458 138.923 10.3495C138.426 10.7545 138.18 11.2312 138.18 11.7694C138.18 12.2051 138.344 12.5639 138.667 12.8509C138.99 13.138 139.415 13.3891 139.937 13.5942C140.46 13.8043 141.059 13.9837 141.735 14.1477C142.411 14.3118 143.098 14.4912 143.789 14.6911C144.481 14.891 145.167 15.1268 145.843 15.3933C146.519 15.665 147.119 16.0084 147.641 16.4185C148.164 16.8337 148.589 17.3411 148.912 17.946C149.234 18.5508 149.398 19.2838 149.398 20.1501C149.398 20.9446 149.234 21.7032 148.912 22.4208C148.589 23.1436 148.102 23.774 147.452 24.3122C146.801 24.8556 145.997 25.2861 145.034 25.6091C144.071 25.932 142.954 26.096 141.694 26.096" fill="white"/>
<path d="M157.507 25.9635C156.621 25.9635 155.801 25.7944 155.033 25.4509C154.264 25.1075 153.593 24.6206 153.02 23.9901C152.446 23.3596 151.99 22.5907 151.652 21.6886C151.319 20.7864 151.15 19.7767 151.15 18.6592C151.15 17.5418 151.314 16.532 151.652 15.6299C151.985 14.7277 152.441 13.964 153.02 13.3284C153.598 12.6928 154.039 12.539 154.807 12.1956C155.57 11.8522 156.626 11.7496 157.507 11.7496C158.265 11.7496 161.968 11.7548 161.968 11.7548H165.754V25.5535H161.968V23.7953H161.835C161.548 24.19 161.195 24.5539 160.78 24.8768C160.421 25.1485 159.976 25.3946 159.443 25.6201C158.91 25.8456 158.265 25.9584 157.512 25.9584M158.454 22.7189C159.484 22.7189 160.324 22.3652 160.98 21.663C161.635 20.9607 161.968 19.9561 161.968 18.6592C161.968 17.3624 161.989 14.6457 161.989 14.6457C161.989 14.6457 159.479 14.5996 158.454 14.5996C157.496 14.5996 156.697 14.9533 156.047 15.6555C155.396 16.3577 155.074 17.3573 155.074 18.6592C155.074 19.9612 155.396 20.9607 156.047 21.663C156.697 22.3652 157.496 22.7189 158.454 22.7189Z" fill="white"/>
<path d="M172.511 11.7593H168.725V25.558H172.511V11.7593Z" fill="white"/>
<path d="M175.486 11.7593H179.272C179.272 11.7593 182.939 11.7131 183.733 11.7131C185.429 11.7131 186.837 12.1027 187.795 13.0817C188.753 14.0659 189.142 15.2602 189.142 17.167V25.5528H185.357V17.7052C185.357 16.68 185.106 15.9009 184.599 15.3781C184.097 14.8553 183.4 14.5938 182.519 14.5938C182.084 14.5938 179.292 14.5938 179.292 14.5938C179.292 14.5938 179.272 17.7103 179.272 18.2485V25.5528H175.486V11.7541V11.7593Z" fill="white"/>
<path d="M192.651 15.0087H190.895V11.7589H192.651V6.57159H196.437V11.7589H200.356V15.0087H196.437V22.313H200.494V25.5576H192.651V15.0087Z" fill="white"/>
<path d="M210.492 6.61908H219.277C220.43 6.61908 221.47 6.79336 222.402 7.14704C223.329 7.50072 224.123 7.97229 224.779 8.56689C225.434 9.16148 225.947 9.86372 226.305 10.6633C226.664 11.4681 226.848 12.3292 226.848 13.2468C226.848 14.1643 226.669 15.0305 226.305 15.8302C225.947 16.6349 225.434 17.332 224.779 17.9266C224.118 18.5212 223.329 18.9928 222.402 19.3465C221.475 19.7002 220.43 19.8744 219.277 19.8744H214.544V25.5538H210.487V6.61908H210.492ZM219.144 16.0916C220.297 16.0916 221.173 15.8199 221.767 15.2817C222.361 14.7384 222.658 14.0618 222.658 13.2519C222.658 12.442 222.361 11.7654 221.767 11.2221C221.173 10.6787 220.297 10.4122 219.144 10.4122H214.549V16.0916H219.144Z" fill="white"/>
<path d="M235.366 25.9627C234.321 25.9627 233.343 25.773 232.431 25.3937C231.519 25.0144 230.731 24.4967 230.065 23.8406C229.399 23.1845 228.876 22.4054 228.497 21.5135C228.118 20.6216 227.929 19.6682 227.929 18.6584C227.929 17.6486 228.118 16.6952 228.497 15.8033C228.876 14.9114 229.399 14.1374 230.065 13.4762C230.731 12.8201 231.519 12.2973 232.431 11.9231C233.343 11.5438 234.321 11.3541 235.366 11.3541C236.411 11.3541 237.436 11.5438 238.327 11.9231C239.218 12.3024 239.992 12.8252 240.637 13.4916C241.288 14.1579 241.785 14.9319 242.138 15.8187C242.492 16.7004 242.666 17.6486 242.666 18.6584V19.4683H231.852C231.924 19.904 232.062 20.3192 232.272 20.7139C232.477 21.1086 232.744 21.4571 233.056 21.7544C233.369 22.0517 233.727 22.2875 234.122 22.4566C234.516 22.6258 234.931 22.7129 235.366 22.7129C235.981 22.7129 236.478 22.6258 236.867 22.4566C237.257 22.2875 237.574 22.103 237.825 21.9031C238.097 21.6673 238.312 21.4007 238.476 21.0932H242.533C242.246 21.9953 241.795 22.8052 241.18 23.5279C240.909 23.8355 240.596 24.1328 240.233 24.4198C239.869 24.7069 239.459 24.9683 238.988 25.2041C238.517 25.4399 237.984 25.6244 237.379 25.7577C236.775 25.8909 236.104 25.9627 235.366 25.9627ZM238.609 17.1719C238.537 16.8285 238.409 16.5056 238.23 16.198C238.05 15.8905 237.82 15.6188 237.538 15.3881C237.257 15.1524 236.934 14.9627 236.565 14.8192C236.196 14.6757 235.797 14.6039 235.361 14.6039C234.475 14.6039 233.743 14.8602 233.159 15.3728C232.575 15.8853 232.18 16.4851 231.98 17.1719H238.604H238.609Z" fill="white"/>
<path d="M245.642 15.0087H243.885V11.7589H245.642V6.57159H249.427V11.7589H253.346V15.0087H249.427V22.313H253.479V25.5576H245.642V15.0087Z" fill="white"/>
<path d="M262.269 25.9627C261.224 25.9627 260.245 25.773 259.334 25.3937C258.422 25.0144 257.633 24.4967 256.967 23.8406C256.301 23.1845 255.779 22.4054 255.4 21.5135C255.021 20.6216 254.831 19.6682 254.831 18.6584C254.831 17.6486 255.021 16.6952 255.4 15.8033C255.779 14.9114 256.301 14.1374 256.967 13.4762C257.633 12.8201 258.422 12.2973 259.334 11.9231C260.245 11.5438 261.224 11.3541 262.269 11.3541C263.314 11.3541 264.338 11.5438 265.229 11.9231C266.121 12.3024 266.894 12.8252 267.54 13.4916C268.19 14.1579 268.687 14.9319 269.04 15.8187C269.394 16.7004 269.568 17.6486 269.568 18.6584V19.4683H258.755C258.826 19.904 258.965 20.3192 259.175 20.7139C259.38 21.1086 259.646 21.4571 259.959 21.7544C260.271 22.0517 260.63 22.2875 261.024 22.4566C261.418 22.6258 261.833 22.7129 262.269 22.7129C262.883 22.7129 263.38 22.6258 263.77 22.4566C264.159 22.2875 264.476 22.103 264.727 21.9031C264.999 21.6673 265.214 21.4007 265.378 21.0932H269.435C269.148 21.9953 268.697 22.8052 268.083 23.5279C267.811 23.8355 267.499 24.1328 267.135 24.4198C266.771 24.7069 266.361 24.9683 265.89 25.2041C265.419 25.4399 264.886 25.6244 264.282 25.7577C263.677 25.8909 263.006 25.9627 262.269 25.9627ZM265.511 17.1719C265.439 16.8285 265.311 16.5056 265.132 16.198C264.953 15.8905 264.722 15.6188 264.441 15.3881C264.159 15.1524 263.836 14.9627 263.467 14.8192C263.099 14.6757 262.699 14.6039 262.264 14.6039C261.377 14.6039 260.645 14.8602 260.061 15.3728C259.477 15.8853 259.083 16.4851 258.883 17.1719H265.506H265.511Z" fill="white"/>
<path d="M271.863 11.7593H275.649V13.7891H275.782C275.946 13.3586 276.187 12.9793 276.509 12.6512C276.781 12.3642 277.139 12.072 277.59 11.7849C278.041 11.4979 278.609 11.3492 279.296 11.3492H280.92V14.9988H278.891C277.862 14.9988 277.068 15.2807 276.499 15.8497C275.93 16.4135 275.649 17.1824 275.649 18.1512V25.5478H271.863V11.7491V11.7593Z" fill="white"/>
<path d="M288.762 25.9627C288.025 25.9627 287.359 25.8961 286.76 25.7577C286.165 25.6244 285.638 25.4399 285.177 25.2041C284.716 24.9683 284.311 24.7069 283.958 24.4198C283.604 24.1328 283.312 23.8355 283.077 23.5279C282.498 22.8052 282.093 21.9953 281.857 21.0932H285.776C285.919 21.4366 286.119 21.7339 286.37 21.9851C286.585 22.2004 286.882 22.4003 287.261 22.5797C287.641 22.7591 288.137 22.8513 288.747 22.8513C289.628 22.8513 290.232 22.7283 290.56 22.4874C290.883 22.2414 291.047 21.9133 291.047 21.4981C291.047 21.1393 290.837 20.8676 290.412 20.6882C289.987 20.5088 289.459 20.3448 288.829 20.2013C288.199 20.0578 287.518 19.904 286.79 19.74C286.063 19.5759 285.382 19.335 284.752 19.007C284.122 18.684 283.594 18.2483 283.169 17.7101C282.744 17.1668 282.534 16.4492 282.534 15.547C282.534 15.0037 282.662 14.4809 282.913 13.9785C283.164 13.4711 283.532 13.0251 284.019 12.6407C284.506 12.2511 285.11 11.9436 285.832 11.7078C286.555 11.472 287.39 11.3541 288.347 11.3541C289.07 11.3541 289.715 11.4156 290.294 11.5438C290.873 11.6719 291.38 11.8411 291.82 12.0564C292.261 12.2716 292.645 12.5177 292.968 12.7894C293.29 13.061 293.562 13.3276 293.777 13.5992C294.3 14.2502 294.653 14.9883 294.832 15.8187H291.047C290.939 15.5675 290.775 15.342 290.56 15.1421C290.361 14.9781 290.089 14.8243 289.736 14.6808C289.382 14.5373 288.921 14.4655 288.342 14.4655C287.656 14.4655 287.169 14.5783 286.882 14.8038C286.596 15.0293 286.452 15.2754 286.452 15.547C286.452 15.9058 286.662 16.1775 287.087 16.3569C287.513 16.5363 288.04 16.7004 288.67 16.8439C289.3 16.9874 289.981 17.1412 290.709 17.3052C291.436 17.4692 292.117 17.7101 292.748 18.0331C293.378 18.356 293.905 18.7917 294.33 19.3299C294.755 19.8732 294.966 20.5908 294.966 21.493C294.966 22.0722 294.832 22.6258 294.561 23.1589C294.289 23.692 293.895 24.1635 293.372 24.5787C292.85 24.9939 292.199 25.3271 291.426 25.5783C290.652 25.8294 289.756 25.9576 288.752 25.9576" fill="white"/>
<path d="M305.388 25.9639C304.63 25.9639 303.985 25.8511 303.457 25.6256C302.924 25.4001 302.479 25.154 302.12 24.8824C301.705 24.5594 301.352 24.1955 301.065 23.8008H300.932V25.559H297.146V6.61908H300.932V11.7295H304.369C305.25 11.7295 307.309 11.75 308.078 12.0935C308.841 12.4369 309.307 12.6983 309.881 13.3288C310.454 13.9592 310.91 14.7281 311.248 15.6303C311.581 16.5324 311.75 17.5422 311.75 18.6596C311.75 19.7771 311.581 20.7868 311.248 21.689C310.915 22.5911 310.459 23.3549 309.881 23.9905C309.302 24.6209 308.631 25.1079 307.868 25.4513C307.104 25.7948 306.28 25.9639 305.393 25.9639M304.441 22.7193C305.393 22.7193 306.198 22.3656 306.848 21.6633C307.499 20.9611 307.821 19.9565 307.821 18.6596C307.821 17.3628 307.499 16.3581 306.848 15.6559C306.198 14.9537 305.399 14.6 304.441 14.6C303.411 14.6 300.958 14.6 300.958 14.6C300.958 14.6 300.927 17.3628 300.927 18.6647C300.927 19.9667 301.255 20.9662 301.915 21.6685C302.571 22.3707 303.416 22.7244 304.446 22.7244" fill="white"/>
<path d="M319.444 25.963C317.749 25.963 316.427 25.4709 315.469 24.4867C314.512 23.5026 314.035 22.0571 314.035 20.1452V11.7593H317.821V19.607C317.821 20.6373 318.072 21.4113 318.579 21.9341C319.081 22.4569 319.777 22.7183 320.658 22.7183C321.089 22.7183 321.504 22.6261 321.903 22.4467C322.303 22.2673 322.646 22.0161 322.943 21.7034C323.24 21.3856 323.476 21.0063 323.645 20.5552C323.814 20.1042 323.901 19.607 323.901 19.0688V11.7645H327.686V25.5632H323.901V23.6717H323.768C323.517 24.1228 323.184 24.5124 322.769 24.8353C322.41 25.1223 321.959 25.3838 321.416 25.6195C320.873 25.8553 320.218 25.9732 319.444 25.9732" fill="white"/>
<path d="M330.662 11.7593H334.447V13.7891H334.581C334.745 13.3586 334.985 12.9793 335.308 12.6512C335.58 12.3642 335.938 12.072 336.389 11.7849C336.84 11.4979 337.408 11.3492 338.095 11.3492H339.718V14.9988H337.69C336.66 14.9988 335.866 15.2807 335.298 15.8497C334.729 16.4135 334.447 17.1824 334.447 18.1512V25.5478H330.662V11.7491V11.7593Z" fill="white"/>
<path d="M342.967 27.3159H351.752V23.3639H351.618C351.331 23.7791 350.978 24.1482 350.563 24.4711C350.205 24.7428 349.754 24.9888 349.226 25.2144C348.693 25.4399 348.048 25.5527 347.295 25.5527C346.414 25.5527 345.589 25.3835 344.821 25.0452C344.053 24.7069 343.382 24.2251 342.808 23.5997C342.229 22.9744 341.778 22.2311 341.445 21.3649C341.112 20.4986 340.943 19.5298 340.943 18.4585C340.943 17.3872 341.112 16.4185 341.445 15.5522C341.778 14.6859 342.234 13.9376 342.808 13.3122C343.387 12.6869 343.72 12.5177 344.488 12.1794C345.251 11.8411 347.029 11.795 347.915 11.795C348.673 11.795 351.762 11.7642 351.762 11.7642H355.547V30.7041H342.977V27.3211L342.967 27.3159ZM348.371 22.3131C349.324 22.3131 350.128 21.9697 350.778 21.288C351.429 20.6063 351.752 19.6631 351.752 18.4585C351.752 17.254 351.736 14.5988 351.736 14.5988C351.736 14.5988 349.329 14.5988 348.371 14.5988C347.341 14.5988 346.501 14.9422 345.84 15.624C345.185 16.3057 344.852 17.2488 344.852 18.4534C344.852 19.658 345.18 20.6011 345.84 21.2829C346.496 21.9646 347.341 22.308 348.371 22.308" fill="white"/>
<path d="M172.48 6.6142H168.725V10.3714H172.48V6.6142Z" fill="white"/>
<path d="M123.955 4.33734H120.575V27.6085H123.955V4.33734Z" fill="white"/>
</g>
</g>
<defs>
<clipPath id="clip0_405_11">
<rect width="363" height="33" fill="white"/>
</clipPath>
</defs>
</svg>
